<?xml version="1.0" encoding="utf-8"?>
<!-- Generator: Adobe Illustrator 26.3.1, SVG Export Plug-In . SVG Version: 6.00 Build 0)  -->
<svg version="1.1" id="Layer_1" xmlns="http://www.w3.org/2000/svg" xmlns:xlink="http://www.w3.org/1999/xlink" x="0px" y="0px"
	 viewBox="0 0 512 512" style="enable-background:new 0 0 512 512;" xml:space="preserve">
<style type="text/css">
	.st0{fill-rule:evenodd;clip-rule:evenodd;}
</style>
<g>
	<path class="st0" d="M74.98,111.18c-10.01-10.01-10.01-26.21,0-36.2c10.01-10.01,26.21-10.01,36.2,0c10.01,9.99,10.01,26.19,0,36.2
		C101.2,121.19,84.99,121.19,74.98,111.18 M437.02,400.82c10.01,9.99,10.01,26.19,0,36.2c-9.98,9.98-26.21,9.98-36.2,0
		c-10.01-10.01-10.01-26.21,0-36.2C410.8,390.81,427.03,390.81,437.02,400.82 M111.18,400.82c10.01,9.99,10.01,26.19,0,36.2
		c-9.98,9.98-26.19,9.98-36.2,0c-10.01-10.01-10.01-26.21,0-36.2C84.99,390.81,101.2,390.81,111.18,400.82 M437.02,74.98
		c10.01,9.99,10.01,26.19,0,36.2c-9.98,10.01-26.21,10.01-36.2,0c-10.01-10.01-10.01-26.21,0-36.2
		C410.8,64.97,427.03,64.97,437.02,74.98 M51.2,256c0,14.13-11.47,25.6-25.6,25.6S0,270.13,0,256s11.47-25.6,25.6-25.6
		S51.2,241.87,51.2,256 M512,256c0,14.13-11.47,25.6-25.6,25.6s-25.6-11.47-25.6-25.6s11.47-25.6,25.6-25.6S512,241.87,512,256
		 M281.6,486.4c0,14.13-11.47,25.6-25.6,25.6s-25.6-11.47-25.6-25.6s11.47-25.6,25.6-25.6S281.6,472.27,281.6,486.4 M230.4,25.6
		C230.4,11.47,241.87,0,256,0s25.6,11.47,25.6,25.6S270.13,51.2,256,51.2S230.4,39.73,230.4,25.6 M256,384
		c-70.58,0-128-57.42-128-128s57.42-128,128-128s128,57.42,128,128S326.58,384,256,384 M256,76.8c-98.97,0-179.2,80.23-179.2,179.2
		S157.03,435.2,256,435.2S435.2,354.97,435.2,256S354.97,76.8,256,76.8"/>
</g>
</svg>
